<?xml version="1.0" standalone="no"?><!DOCTYPE svg PUBLIC "-//W3C//DTD SVG 1.1//EN" "http://www.w3.org/Graphics/SVG/1.1/DTD/svg11.dtd"><svg t="1522116769365" class="icon" style="" viewBox="0 0 1024 1024" version="1.1" xmlns="http://www.w3.org/2000/svg" p-id="1266" xmlns:xlink="http://www.w3.org/1999/xlink" width="32" height="32"><defs><style type="text/css"></style></defs><path d="M370.688 511.488m-254.464 0a254.464 254.464 0 1 0 508.928 0 254.464 254.464 0 1 0-508.928 0Z" fill="#695FF9" p-id="1267"></path><path d="M534.016 427.52s-143.872 92.16-34.816 285.696l10.24-6.656s-100.864-166.912 33.792-271.36l-9.216-7.68z" fill="#433BE2" p-id="1268"></path><path d="M325.632 274.432s159.744-26.624 229.888 144.896c0 0 1.536-6.144 26.624-23.04 0.512-0.512-71.68-150.528-256.512-121.856z" fill="#7373F9" p-id="1269"></path><path d="M392.704 271.36c67.584 1.536 151.04 48.64 189.44 124.416 0 0-5.632 8.192-6.656 6.656-11.264-15.872-61.952-117.76-182.784-131.072z" fill="#FFFFFF" p-id="1270"></path><path d="M168.448 377.344c-61.952 134.144 29.184 357.376 160.256 371.712 0 0-136.192-7.168-187.904-145.92s21.504-198.656 27.648-225.792z" fill="#5151F4" p-id="1271"></path><path d="M370.688 270.336c132.608 0 240.64 108.032 240.64 240.64s-108.032 240.64-240.64 240.64-240.64-108.032-240.64-240.64 108.032-240.64 240.64-240.64m0-13.312c-140.8 0-254.464 114.176-254.464 254.464s114.176 254.464 254.464 254.464 254.464-114.176 254.464-254.464-113.664-254.464-254.464-254.464z" fill="#353942" p-id="1272"></path><path d="M326.144 471.552l38.912-23.04c7.168-4.096 7.168-14.848 0-18.944l-39.424-22.528c-3.584-2.048-5.632-5.632-5.632-9.728l-0.512-48.64c0-8.704-9.216-13.824-16.384-9.216L261.12 364.032c-3.584 2.048-7.68 2.048-11.264 0l-39.424-22.528c-7.168-4.096-16.384 1.024-16.384 9.728v45.056c0 4.096-2.048 7.68-5.632 9.728l-38.912 23.04c-7.168 4.096-7.168 14.848 0 18.944l39.424 22.528c3.584 2.048 5.632 5.632 5.632 9.728l0.512 48.64c0 8.704 9.216 13.824 16.384 9.216l41.984-24.576c3.584-2.048 7.68-2.048 11.264 0l39.424 22.528c7.168 4.096 16.384-1.024 16.384-9.728V481.28c0.512-4.096 2.56-7.68 5.632-9.728z" fill="#532FD3" p-id="1273"></path><path d="M344.064 451.584l44.544-23.552c8.192-4.608 8.192-15.36 0-19.968l-44.544-23.04c-4.096-2.048-6.144-5.632-6.144-9.728l-0.512-50.176c0-8.704-10.752-14.336-18.944-9.728l-47.616 25.6c-4.096 2.048-8.704 2.048-12.8 0l-44.544-23.04c-8.192-4.608-18.944 1.024-18.944 10.24l0.512 47.104c0 4.096-2.56 7.68-6.144 9.728l-44.544 23.552c-8.192 4.608-8.192 15.36 0 19.968l44.544 23.04c4.096 2.048 6.144 5.632 6.144 9.728l0.512 50.176c0 8.704 10.752 14.336 18.944 9.728l47.616-25.6c4.096-2.048 8.704-2.048 12.8 0l44.544 23.04c8.192 4.608 18.944-1.024 18.944-10.24l-0.512-47.104c0-4.096 2.048-7.68 6.144-9.728z" fill="#644EE5" p-id="1274"></path><path d="M323.584 327.68l0.512 47.616c0 9.216 5.12 17.408 13.824 22.016l40.448 20.992-40.448 21.504c-8.192 4.608-13.312 12.8-13.312 22.016l0.512 44.032-43.52-22.528c-3.584-2.048-8.192-3.072-12.288-3.072-4.608 0-8.704 1.024-12.8 3.072L209.92 507.904l-0.512-47.616c0-9.216-5.12-17.408-13.824-22.016l-40.448-20.992 40.448-21.504c8.192-4.608 13.312-12.8 13.312-22.016l-0.512-44.032 43.52 22.528c3.584 2.048 8.192 3.072 12.288 3.072 4.608 0 8.704-1.024 12.8-3.072l46.592-24.576m1.024-14.336c-2.048 0-4.096 0.512-6.144 1.536l-47.616 25.6c-2.048 1.024-4.096 1.536-6.144 1.536-2.048 0-4.096-0.512-6.144-1.536L214.016 317.44c-2.048-1.024-4.096-1.536-6.144-1.536-6.656 0-12.8 4.608-12.8 11.776l0.512 47.104c0 4.096-2.56 7.68-6.144 9.728l-44.544 23.552c-8.192 4.608-8.192 15.36 0 19.968l44.544 23.04c4.096 2.048 6.144 5.632 6.144 9.728l0.512 50.176c0 6.656 6.144 11.264 12.8 11.264 2.048 0 4.096-0.512 6.144-1.536l47.616-25.6c2.048-1.024 4.096-1.536 6.144-1.536 2.048 0 4.096 0.512 6.144 1.536l44.544 23.04c2.048 1.024 4.096 1.536 6.144 1.536 6.656 0 12.8-4.608 12.8-11.776l-0.512-46.592c0-4.096 2.56-7.68 6.144-9.728l44.544-23.552c8.192-4.608 8.192-15.36 0-19.968l-44.544-23.04c-4.096-2.048-6.144-5.632-6.144-9.728l-0.512-50.176c-0.512-7.168-6.656-11.776-12.8-11.776z" fill="#353942" p-id="1275"></path><path d="M228.864 417.792a37.376 33.792 0 1 0 74.752 0 37.376 33.792 0 1 0-74.752 0Z" fill="#4931BC" p-id="1276"></path><path d="M266.24 397.312c12.8 0 23.552 9.216 23.552 20.48s-10.752 20.48-23.552 20.48-23.552-9.216-23.552-20.48 10.752-20.48 23.552-20.48m0-13.824c-20.48 0-37.376 15.36-37.376 33.792 0 18.944 16.896 33.792 37.376 33.792s37.376-15.36 37.376-33.792c0-18.432-16.896-33.792-37.376-33.792z" fill="#353942" p-id="1277"></path><path d="M675.84 580.608m-208.384 0a208.384 208.384 0 1 0 416.768 0 208.384 208.384 0 1 0-416.768 0Z" fill="#695FF9" p-id="1278"></path><path d="M518.656 466.432S438.784 716.8 675.84 773.12c0 0-158.72 21.504-194.56-171.008 0 0-13.824-123.392 37.376-135.68z" fill="#5151F4" p-id="1279"></path><path d="M636.416 389.12s244.736 20.992 207.36 290.304c0 0 78.336-113.152-27.648-251.904 0 0-68.096-59.904-179.712-38.4z" fill="#7373F9" p-id="1280"></path><path d="M850.944 524.8h20.48c-7.68-6.656 3.584-11.776-1.536-16.384l-6.656-28.16c-2.56-2.048-3.072-5.12-2.56-7.68l9.216-33.28c1.536-5.632-4.608-11.776-11.264-10.24l-38.4 7.168c-3.072 0.512-6.656-0.512-8.704-2.56l-27.136-24.576c-5.12-4.608-13.312-3.072-14.848 3.072l-8.704 31.232c-0.512 2.56-3.072 4.608-6.144 5.12l-35.84 6.656c-6.656 1.024-8.704 8.704-3.584 13.312l27.136 24.576c2.56 2.048 3.072 5.12 2.56 7.68l-9.216 33.28c-1.536 5.632 4.608 11.776 11.264 10.24l38.4-7.168c3.072-0.512 6.656 0.512 8.704 2.56l27.136 24.576c5.12 4.608 13.312 3.072 14.848-3.072l8.704-31.232c1.024-2.56 3.072-4.608 6.144-5.12z" fill="#532FD3" p-id="1281"></path><path d="M647.168 389.632s143.872-7.168 196.608 121.856c0 0 38.4 47.104 0 167.936 0 0 79.36-100.864 6.144-212.992-72.704-111.616-202.752-76.8-202.752-76.8z" fill="#FFFFFF" p-id="1282"></path><path d="M675.84 385.536c107.52 0 194.56 87.552 194.56 194.56s-87.552 194.56-194.56 194.56-194.56-87.552-194.56-194.56 87.04-194.56 194.56-194.56m0-13.312c-115.2 0-208.384 93.184-208.384 208.384S560.64 788.48 675.84 788.48s208.384-93.184 208.384-208.384-93.184-207.872-208.384-207.872z" fill="#353942" p-id="1283"></path><path d="M865.792 510.976l35.84-6.656c6.656-1.024 8.704-8.704 3.584-13.312l-27.136-24.576c-2.56-2.048-3.072-5.12-2.56-7.68l9.216-33.28c1.536-5.632-4.608-11.776-11.264-10.24l-38.4 7.168c-3.072 0.512-6.656-0.512-8.704-2.56l-27.136-24.576c-5.12-4.608-13.312-3.072-14.848 3.072l-8.704 31.232c-0.512 2.56-3.072 4.608-6.144 5.12l-35.84 6.656c-6.656 1.024-8.704 8.704-3.584 13.312l27.136 24.576c2.56 2.048 3.072 5.12 2.56 7.68l-9.216 33.28c-1.536 5.632 4.608 11.776 11.264 10.24l38.4-7.168c3.072-0.512 6.656 0.512 8.704 2.56l27.136 24.576c5.12 4.608 13.312 3.072 14.848-3.072l8.704-31.232c0.512-2.56 3.072-4.608 6.144-5.12z" fill="#644EE5" p-id="1284"></path><path d="M795.136 410.624s14.336 22.528 31.232 28.16c10.24 3.584 38.912-5.12 38.912-5.12s-9.728 22.016-5.632 35.84c3.584 12.8 27.136 23.552 27.136 23.552l-18.432-19.968 3.584-44.544-41.472 2.048-35.328-19.968z" fill="#FFFFFF" p-id="1285"></path><path d="M795.136 410.624l22.016 19.968c4.608 4.096 10.24 6.144 15.872 6.144 1.536 0 3.072 0 4.608-0.512l31.744-6.144-7.168 25.088c-2.048 7.68 0.512 15.872 6.656 21.504l17.92 16.384-23.552 4.608c-8.192 1.536-14.848 7.168-16.896 14.848l-6.656 23.04-22.016-19.968c-4.608-4.096-10.24-6.144-15.872-6.144-1.536 0-3.072 0-4.608 0.512l-31.744 6.144 7.168-25.088c2.048-7.68-0.512-15.872-6.656-21.504l-17.92-16.384 23.552-4.608c8.192-1.536 14.848-7.168 16.896-14.848l6.656-23.04m-2.56-17.408c-3.584 0-7.168 2.048-8.192 5.632l-8.704 31.232c-0.512 2.56-3.072 4.608-6.144 5.12l-35.84 6.656c-6.656 1.024-8.704 8.704-3.584 13.312l27.136 24.576c2.56 2.048 3.072 5.12 2.56 7.68l-9.216 33.28c-1.536 5.12 3.584 10.24 9.728 10.24h2.048l38.4-7.168h2.048c2.56 0 5.12 1.024 7.168 2.56l27.136 24.576c2.048 2.048 4.608 2.56 7.168 2.56 3.584 0 7.168-2.048 8.192-5.632l8.704-31.232c0.512-2.56 3.072-4.608 6.144-5.12l35.84-6.656c6.656-1.024 8.704-8.704 3.584-13.312l-27.136-24.576c-2.56-2.048-3.072-5.12-2.56-7.68l9.216-33.28c1.536-5.12-3.584-10.24-9.728-10.24h-2.048l-38.4 7.168h-2.048c-2.56 0-5.12-1.024-7.168-2.56l-27.136-24.576c-2.048-1.536-4.608-2.56-7.168-2.56z" fill="#353942" p-id="1286"></path><path d="M810.971278 495.618194a27.136 23.552 16.034 1 0 13.010489-45.271558 27.136 23.552 16.034 1 0-13.010489 45.271558Z" fill="#4931BC" p-id="1287"></path><path d="M815.616 462.848c1.536 0 3.072 0 4.608 0.512 7.168 2.048 11.776 8.192 10.24 13.312-1.024 3.584-5.632 6.144-10.752 6.144-1.536 0-3.072 0-5.12-0.512-3.584-1.024-7.168-3.584-9.216-6.144-1.024-1.536-2.048-4.096-1.536-6.656 1.536-3.584 6.144-6.656 11.776-6.656m0-13.312c-11.264 0-20.992 6.144-24.064 16.384-3.584 12.288 5.12 26.112 19.456 30.208 3.072 1.024 5.632 1.024 8.704 1.024 11.264 0 20.992-6.144 24.064-16.384 3.584-12.288-5.12-26.112-19.456-30.208-3.072-0.512-6.144-1.024-8.704-1.024z" fill="#353942" p-id="1288"></path><path d="M682.496 649.216m-12.8 0a12.8 12.8 0 1 0 25.6 0 12.8 12.8 0 1 0-25.6 0Z" fill="#5F50EA" p-id="1289"></path><path d="M402.944 694.784m-12.8 0a12.8 12.8 0 1 0 25.6 0 12.8 12.8 0 1 0-25.6 0Z" fill="#5F50EA" p-id="1290"></path><path d="M359.936 629.76m-12.8 0a12.8 12.8 0 1 0 25.6 0 12.8 12.8 0 1 0-25.6 0Z" fill="#5F50EA" p-id="1291"></path><path d="M760.32 694.784m-12.288 0a12.288 12.288 0 1 0 24.576 0 12.288 12.288 0 1 0-24.576 0Z" fill="#5F50EA" p-id="1292"></path><path d="M274.944 667.136m-12.288 0a12.288 12.288 0 1 0 24.576 0 12.288 12.288 0 1 0-24.576 0Z" fill="#5F50EA" p-id="1293"></path><path d="M657.408 716.8m-9.728 0a9.728 9.728 0 1 0 19.456 0 9.728 9.728 0 1 0-19.456 0Z" fill="#5F50EA" p-id="1294"></path><path d="M712.704 682.496m-7.68 0a7.68 7.68 0 1 0 15.36 0 7.68 7.68 0 1 0-15.36 0Z" fill="#5F50EA" p-id="1295"></path><path d="M612.864 727.04m-7.68 0a7.68 7.68 0 1 0 15.36 0 7.68 7.68 0 1 0-15.36 0Z" fill="#5F50EA" p-id="1296"></path><path d="M615.936 657.92m-9.216 0a9.216 9.216 0 1 0 18.432 0 9.216 9.216 0 1 0-18.432 0Z" fill="#5F50EA" p-id="1297"></path><path d="M321.536 657.92m-9.216 0a9.216 9.216 0 1 0 18.432 0 9.216 9.216 0 1 0-18.432 0Z" fill="#5F50EA" p-id="1298"></path><path d="M306.176 625.152m-6.144 0a6.144 6.144 0 1 0 12.288 0 6.144 6.144 0 1 0-12.288 0Z" fill="#5F50EA" p-id="1299"></path><path d="M615.296651 694.954459a6.143754 6.143754 0 1 0 0.96086-12.249882 6.143754 6.143754 0 1 0-0.96086 12.249882Z" fill="#5F50EA" p-id="1300"></path><path d="M280.808581 696.230424a6.143754 6.143754 0 1 0 0.96086-12.249882 6.143754 6.143754 0 1 0-0.96086 12.249882Z" fill="#5F50EA" p-id="1301"></path><path d="M337.807462 708.783047a6.143754 6.143754 0 1 0 0.96086-12.249882 6.143754 6.143754 0 1 0-0.96086 12.249882Z" fill="#5F50EA" p-id="1302"></path><path d="M396.217404 666.773573a6.143754 6.143754 0 1 0 0.96086-12.249883 6.143754 6.143754 0 1 0-0.96086 12.249883Z" fill="#5F50EA" p-id="1303"></path><path d="M726.376287 742.903364a9.727611 9.727611 0 1 0 1.521362-19.395647 9.727611 9.727611 0 1 0-1.521362 19.395647Z" fill="#5F50EA" p-id="1304"></path><path d="M444.38157 712.748104a9.727611 9.727611 0 1 0 1.521361-19.395646 9.727611 9.727611 0 1 0-1.521361 19.395646Z" fill="#5F50EA" p-id="1305"></path><path d="M655.410645 681.769624a2.559898 2.559898 0 1 0 0.400358-5.104117 2.559898 2.559898 0 1 0-0.400358 5.104117Z" fill="#5F50EA" p-id="1306"></path></svg>