<?xml version="1.0" standalone="no"?><!DOCTYPE svg PUBLIC "-//W3C//DTD SVG 1.1//EN" "http://www.w3.org/Graphics/SVG/1.1/DTD/svg11.dtd"><svg t="1520415776596" class="icon" style="" viewBox="0 0 1024 1024" version="1.1" xmlns="http://www.w3.org/2000/svg" p-id="1183" xmlns:xlink="http://www.w3.org/1999/xlink" width="32" height="32"><defs><style type="text/css"></style></defs><path d="M512 380.758932m-345.240375 0a345.240375 345.240375 0 1 0 690.48075 0 345.240375 345.240375 0 1 0-690.48075 0Z" fill="#FFFFFF" p-id="1184"></path><path d="M888.496705 306.880333C845.874436 99.45196 642.70829-34.097815 435.279917 8.524454 256.266389 44.043011 128.399584 201.745404 128.399584 383.600416v32.677073c0 5.682969 1.420742 11.365938 1.420742 17.048907 0 2.841485 0 5.682969 1.420742 8.524454C173.863337 720.316337 483.585154 1007.306278 497.792577 1018.672216c8.524454 7.103711 19.890392 7.103711 28.414846 0 14.207423-11.365938 331.032952-304.038848 366.551509-585.34582 1.420742-5.682969 1.420742-11.365938 1.420742-17.048907v-8.524454-19.890392-4.262227c1.420742-25.573361-1.420742-51.146722-5.682969-76.720083zM512 710.371141C331.56573 710.371141 185.229275 564.034686 185.229275 383.600416S331.56573 56.829691 512 56.829691s326.770725 146.336455 326.770725 326.770725-146.336455 326.770725-326.770725 326.770725z" fill="#429BF9" p-id="1185"></path><path d="M710.90392 251.471384c0-1.420742 0-1.420742 0 0l-26.994104-105.134929c0-2.841485-2.841485-4.262227-5.682969-4.262227H386.974679c-2.841485 0-4.262227 1.420742-5.682969 4.262227l-26.994103 103.714187v2.841484c0 18.46965 17.048907 34.097815 39.780784 34.097815v71.037114h-19.890392c-2.841485 0-5.682969 2.841485-5.68297 5.682969V383.600416c0 2.841485 2.841485 5.682969 5.68297 5.682969h9.945196v52.567465c49.72598 0 89.506764 39.780784 90.927506 89.506764h191.800208v-142.074229h12.78668c2.841485 0 5.682969-2.841485 5.682969-5.682969v-21.311134c0-2.841485-2.841485-5.682969-5.682969-5.682969h-15.628165v-71.037114h5.682969c22.731877 1.420742 41.201526-14.207423 41.201527-34.097815z m-39.780784 24.152619h-5.68297c-9.945196-1.420742-17.048907-7.103711-21.311134-14.207423 0-1.420742-1.420742-1.420742-1.420742-2.841485h58.250434c-4.262227 8.524454-17.048907 17.048907-29.835588 17.048908z m-180.43427-18.46965c-2.841485 9.945196-14.207423 18.46965-28.414846 18.46965s-25.573361-7.103711-28.414846-18.46965h56.829692z m69.616372 0c-2.841485 9.945196-14.207423 18.46965-28.414846 18.46965s-25.573361-7.103711-28.414846-18.46965h56.829692z m69.616371 0c-2.841485 9.945196-14.207423 18.46965-28.414845 18.46965s-25.573361-7.103711-28.414846-18.46965h56.829691z m-15.628165-103.714187l14.207423 93.768991h-58.250433l-4.262227-93.768991h48.305237z m-122.183836 92.348249h-58.250434l14.207423-93.768991h48.305238l-4.262227 93.768991z m-100.872702 11.365938h29.835588c-1.420742 4.262227-4.262227 8.524454-8.524454 11.365938-5.682969 4.262227-12.786681 5.682969-19.890392 5.682969h-1.420742c-12.786681 0-24.152619-8.524454-26.994103-18.469649h26.994103v1.420742z m282.727714 122.183836H377.029483V369.392993h296.935137v9.945196z m-31.25633-22.731876h-34.097815l-19.890392-36.939299H469.377732l-19.890392 36.939299H412.54804v-75.299341c5.682969-2.841485 11.365938-7.103711 14.207423-12.786681 7.103711 9.945196 19.890392 17.048907 34.097815 17.048908s28.414846-7.103711 34.097815-17.048908c7.103711 9.945196 19.890392 17.048907 34.097814 17.048908s28.414846-7.103711 34.097815-17.048908c7.103711 9.945196 19.890392 17.048907 34.097815 17.048908s28.414846-7.103711 34.097815-17.048908c1.420742 2.841485 4.262227 5.682969 7.103711 7.103712v80.98231h4.262227z" fill="#429BF9" p-id="1186"></path><path d="M384.133195 613.760666c44.043011 0 80.98231-35.518557 80.98231-80.98231s-35.518557-80.98231-80.98231-80.98231c-44.043011 0-80.98231 35.518557-80.982311 80.98231s35.518557 80.98231 80.982311 80.98231z m8.524453-14.207423l-1.420742-1.420742v1.420742h-14.207423v-1.420742h-1.420742l7.103711-39.780784 7.103712 39.780784 2.841484 1.420742-8.524453-42.622268 2.841484-12.786681 8.524454 9.945196 14.207423 39.780784v1.420742c-5.682969 2.841485-11.365938 4.262227-17.048908 4.262227z m-73.878598-58.250433c-1.420742-2.841485-1.420742-5.682969-1.420743-8.524454V525.674644h1.420743l39.780784 7.103712-39.780784 8.524454z m0-15.628166c0-7.103711 1.420742-12.786681 2.841484-18.469649h1.420742l39.780784 14.207423 9.945196 8.524453-12.78668 2.841485-41.201526-7.103712z m11.365938-31.25633h1.420742-1.420742l31.25633 26.994104-38.360042-14.207423h-1.420742c2.841485-5.682969 5.682969-9.945196 8.524454-12.786681z m26.994103-22.731876c5.682969-2.841485 11.365938-4.262227 17.048908-4.262227v1.420742l7.103711 42.622269-2.841485 12.78668-8.524453-9.945196-14.207423-39.780784 1.420742-2.841484z m35.518557-2.841485c5.682969 0 12.786681 1.420742 17.048908 2.841485v1.420742l-14.207423 39.780784-8.524454 9.945196-2.841484-12.786681 8.524453-41.201526z m29.835588 11.365938L396.919875 511.467222l14.207423-38.360042v-1.420742c4.262227 2.841485 8.524454 4.262227 11.365938 8.524453z m26.994104 45.463753l-44.043011 8.524454-12.786681-2.841484 9.945196-8.524454 39.780784-14.207423h1.420742c4.262227 4.262227 5.682969 9.945196 5.68297 17.048907z m-4.262227 34.097815l-41.201526-14.207423-9.945196-8.524453 12.78668-2.841485 42.622269 7.103712h1.420742c-1.420742 7.103711-2.841485 12.786681-5.682969 18.469649z m-52.567465-24.152619v-2.841484l11.365939 1.420742-11.365939 1.420742z m-5.682969 5.68297c1.420742 0 1.420742-1.420742 2.841485-1.420743l4.262227 9.945196-7.103712-8.524453z m4.262227-1.420743c0-1.420742 1.420742-1.420742 1.420742-2.841484l8.524454 7.103711-9.945196-4.262227z m59.671176-5.682969v7.103712h-1.420742l-39.780784-7.103712 39.780784-7.103711v1.420742h1.420742v5.682969z m-58.250434-4.262227l-2.841484-2.841484 9.945196-4.262227-7.103712 7.103711z m-2.841484-2.841484c-1.420742 0-1.420742-1.420742-2.841485-1.420743l7.103712-8.524453-4.262227 9.945196z m-4.262227-2.841485h-2.841485l1.420743-11.365938 1.420742 11.365938z m-4.262227 0l-2.841485 2.841485-4.262226-9.945196 7.103711 7.103711z m-4.262227 4.262227c0 1.420742-1.420742 1.420742-1.420742 2.841485l-8.524454-7.103712 9.945196 4.262227z m-2.841484 2.841485c0 1.420742 0 1.420742 0 0v2.841484l-11.365939-1.420742 11.365939-1.420742z m1.420742 5.682969c0 1.420742 1.420742 1.420742 1.420742 2.841484l-9.945196 4.262227 8.524454-7.103711z m2.841484 2.841484c1.420742 0 1.420742 1.420742 2.841485 1.420743l-7.103711 8.524453 4.262226-9.945196z m4.262227 2.841485h2.841485l-1.420742 11.365938-1.420743-11.365938z m28.414846 52.567464l-14.207423-38.360041 25.573361 31.25633 1.420742 1.420742c-4.262227 1.420742-8.524454 2.841485-12.78668 5.682969z m12.78668-8.524453l-28.414845-34.097815-4.262227-12.786681 12.786681 4.262227 32.677072 26.994104 1.420742 1.420742c-4.262227 5.682969-8.524454 9.945196-14.207423 14.207423z m14.207423-14.207423l-31.25633-26.994104 38.360042 14.207423h1.420742c-4.262227 5.682969-5.682969 9.945196-8.524454 12.786681z m-1.420742-78.140826c4.262227 2.841485 5.682969 7.103711 8.524454 11.365939h-1.420743l-36.939299 14.207422 29.835588-25.573361-34.097815 26.994104-11.365938 4.262226 4.262227-12.78668 26.994103-32.677073 1.420742-1.420742 12.786681 12.786681v2.841484zM391.236906 468.844953l-7.103711 38.360042-7.103712-39.780784v-1.420742h7.103712c1.420742 0 4.262227 0 7.103711 2.841484z m-48.305238 11.365938h1.420743-1.420743c5.682969-4.262227 8.524454-5.682969 12.786681-8.524453v1.420742l14.207423 36.939299-25.573361-31.25633-1.420743 1.420742 28.414846 34.097815 4.262227 12.786681-12.786681-4.262227-32.677072-26.994103-1.420742-1.420743 14.207422-14.207423z m-19.890392 78.140826c-4.262227-4.262227-5.682969-11.365938-5.682969-17.048907h1.420743l42.622268-7.103712 12.786681 2.841485-9.945196 8.524453-41.201527 12.786681 38.360042-12.786681-31.25633 25.573362v1.420742l32.677072-26.994104 12.786681-4.262226-4.262227 12.78668-26.994103 32.677073h1.420742l25.573361-31.256331-14.207423 38.360042h1.420743l14.207422-39.780784 8.524454-9.945196 2.841485 12.786681-7.103712 42.622268v1.420742l-17.048907-4.262226v-1.420743h-1.420742v1.420743c-4.262227-1.420742-8.524454-4.262227-12.786681-7.103712l1.420742-1.420742-1.420742-1.420742-1.420742 1.420742-12.786681-12.786681 1.420742-1.420742-1.420742-1.420742-1.420742 1.420742c-2.841485-4.262227-5.682969-8.524454-7.103712-12.78668h1.420743l-1.420743-2.841485zM682.489074 556.930975c-1.420742-5.682969-4.262227-11.365938-7.103712-17.048908-1.420742 1.420742-2.841485 1.420742-4.262226 1.420743h-42.622269c5.682969 7.103711 12.786681 14.207423 17.048908 21.311134-4.262227 5.682969-8.524454 12.786681-8.524454 19.890392 0 17.048907 12.786681 29.835588 29.835588 29.835588 17.048907 0 29.835588-12.786681 29.835588-29.835588 1.420742-9.945196-5.682969-19.890392-14.207423-25.573361z m-14.207423 49.72598c-12.786681 0-22.731877-9.945196-22.731876-22.731877 0-5.682969 1.420742-9.945196 4.262226-12.78668 4.262227-5.682969 11.365938-8.524454 18.46965-8.524454s14.207423 4.262227 18.46965 8.524454c2.841485 4.262227 4.262227 8.524454 4.262227 14.207422 0 11.365938-9.945196 21.311134-22.731877 21.311135z" fill="#429BF9" p-id="1187"></path><path d="M668.281651 583.925078m-7.103711 0a7.103711 7.103711 0 1 0 14.207422 0 7.103711 7.103711 0 1 0-14.207422 0Z" fill="#429BF9" p-id="1188"></path></svg>